# xmcd CD database file
#
# Track frame offsets:
#	150
#	21110
#	41292
#
# Disc length: 746 seconds
#
# Revision: 0
# Processed by: cddbd v1.5PL3 Copyright (c) Steve Scherf et al.
# Submitted via: CDex 1.51
#
DISCID=1702e803
DTITLE=Psycho le Cemu - 想い出歩記
DYEAR=2004
DGENRE=JPop
TTITLE0=想い出歩記
TTITLE1=Sky-High
TTITLE2=チャイニーズ少年
EXTD=YEAR: 2004
EXTT0=
EXTT1=
EXTT2=
PLAYORDER=
